<svg xmlns="http://www.w3.org/2000/svg" width="75.99" height="67.935" viewBox="0 0 75.99 67.935">
  <g id="noun_Heart_1742987" transform="translate(-12.005 -16.033)">
    <g id="Group_1" data-name="Group 1" transform="translate(0 -952.362)">
      <path id="Path_1" data-name="Path 1" d="M31.756,968.4a19.224,19.224,0,0,0-13.969,6.031,21.152,21.152,0,0,0-.031,29.031l30.781,32.281a2.082,2.082,0,0,0,2.906,0q15.4-16.119,30.781-32.25a21.143,21.143,0,0,0,0-29.031,19.212,19.212,0,0,0-27.969,0l-4.25,4.406-4.25-4.437a18.984,18.984,0,0,0-14-6.031Zm0,3.938a15.356,15.356,0,0,1,11.125,4.875l5.688,5.969a2.082,2.082,0,0,0,2.906,0l5.656-5.937a15.094,15.094,0,0,1,22.219,0,17.147,17.147,0,0,1,0,23.5q-14.67,15.352-29.344,30.719l-29.344-30.75a17.151,17.151,0,0,1,0-23.5,15.289,15.289,0,0,1,11.094-4.875Z"/>
    </g>
  </g>
</svg>
