<svg xmlns="http://www.w3.org/2000/svg" width="75.99" height="67.935" viewBox="0 0 75.99 67.935">
  <g id="noun_Heart_1742987" transform="translate(-12.005 -16.033)">
    <g id="Group_1" data-name="Group 1" transform="translate(0 -952.362)">
      <path id="Path_1" data-name="Path 1" d="M31.756,968.4a19.224,19.224,0,0,0-13.969,6.031,21.152,21.152,0,0,0-.031,29.031l30.781,32.281a2.082,2.082,0,0,0,2.906,0q15.4-16.119,30.781-32.25a21.143,21.143,0,0,0,0-29.031,19.212,19.212,0,0,0-27.969,0l-4.25,4.406-4.25-4.437a18.984,18.984,0,0,0-14-6.031Zm18.25,63.063c4,0,27.7-36.069,30.807-32.819L48.537,983.777c.745.788.724,48.468,1.469,47.68L79.35,998.639c6.212-6.5-55.526,4.874-49.314,11.375s45.7-7.606,45.7-7.606-7.585.343-14.017,7.606-6.744,16.244-11.712,21.444l-29.344-30.75c-6.208-6.509,23.132,37.251,29.344,30.75C53.112,1028.207,46.007,1031.458,50.006,1031.458Z"/>
    </g>
  </g>
</svg>
