<?xml version="1.0" encoding="UTF-8"?>
<!DOCTYPE svg PUBLIC "-//W3C//DTD SVG 1.1//EN" "http://www.w3.org/Graphics/SVG/1.1/DTD/svg11.dtd">
<!-- Creator: CorelDRAW 2020 (64-Bit Versión de evaluación) -->
<svg xmlns="http://www.w3.org/2000/svg" xml:space="preserve" width="115.165mm" height="108.212mm" version="1.1" style="shape-rendering:geometricPrecision; text-rendering:geometricPrecision; image-rendering:optimizeQuality; fill-rule:evenodd; clip-rule:evenodd"
viewBox="0 0 5691.26 5347.65"
 xmlns:xlink="http://www.w3.org/1999/xlink"
 xmlns:xodm="http://www.corel.com/coreldraw/odm/2003">
 <defs>
  <style type="text/css">
   <![CDATA[
    .fil0 {fill:#2A4734}
   ]]>
  </style>
   <mask id="id0">
  <linearGradient id="id1" gradientUnits="userSpaceOnUse" x1="2418.96" y1="2741.36" x2="4662.28" y2="2741.36">
   <stop offset="0" style="stop-opacity:0; stop-color:white"/>
   <stop offset="0.278431" style="stop-opacity:0.501961; stop-color:white"/>
   <stop offset="1" style="stop-opacity:1; stop-color:white"/>
  </linearGradient>
    <rect style="fill:url(#id1)" x="2418.84" y="2552.76" width="2243.56" height="377.19"/>
   </mask>
   <mask id="id2">
  <linearGradient id="id3" gradientUnits="userSpaceOnUse" x1="2205.65" y1="1900.43" x2="4946.14" y2="1900.43">
   <stop offset="0" style="stop-opacity:0; stop-color:white"/>
   <stop offset="0.278431" style="stop-opacity:0.501961; stop-color:white"/>
   <stop offset="1" style="stop-opacity:1; stop-color:white"/>
  </linearGradient>
    <rect style="fill:url(#id3)" x="2205.53" y="1717.64" width="2740.74" height="365.59"/>
   </mask>
   <mask id="id4">
  <linearGradient id="id5" gradientUnits="userSpaceOnUse" x1="1804.73" y1="1112.36" x2="5215.27" y2="1112.36">
   <stop offset="0" style="stop-opacity:0; stop-color:white"/>
   <stop offset="0.278431" style="stop-opacity:0.501961; stop-color:white"/>
   <stop offset="1" style="stop-opacity:1; stop-color:white"/>
  </linearGradient>
    <rect style="fill:url(#id5)" x="1804.61" y="925.3" width="3410.79" height="374.11"/>
   </mask>
 </defs>
 <g id="Capa_x0020_1">
  <metadata id="CorelCorpID_0Corel-Layer"/>
  <path class="fil0" style="mask:url(#id0)" d="M4662.28 2554.05c-696.55,0.78 -1394.81,-4.9 -2090.62,3.49 -65.89,14.9 -97.79,33.96 -127.2,82.61 -29.67,49.09 -33.83,111.71 -10.47,167.84 93.82,225.38 1518.86,64.26 2111.32,88.61l116.97 -342.55z"/>
  <path class="fil0" style="mask:url(#id2)" d="M4946.14 1722.75c-187.79,2.05 -387.49,-5.85 -567.13,-4.9l-1891.95 0.13c-199.78,-0.19 -174.01,0.03 -261.69,93.67 -10.72,11.45 -2.93,5.73 -14.55,12.13 2.32,74.03 -22.26,89.03 19.12,160.74 78.18,135.47 247.03,92.01 484.52,91.74 183.41,-0.21 1592.82,-7.46 2111.83,-2.49l119.86 -351.02z"/>
  <path class="fil0" style="mask:url(#id4)" d="M5215.27 934.57c-818.92,-23.32 -2651.92,5.32 -2928.33,5.32 -125.84,0.02 -316.52,-17.85 -401.09,31.31l-38.27 22.56c-7.65,29.21 -33.27,47.95 -42.79,97.06 -1.44,82.2 21.36,133.74 66.79,169.56 51.49,40.59 109.58,38.95 187.96,38.41l2737.88 0.46c92.59,0.31 195.26,-3.37 294.49,-3.41l123.36 -361.28z"/>
  <path class="fil0" d="M2375.98 4919.73c-25.16,63.15 -96.38,111.16 -175.8,127.23 -93.02,15.63 -175.54,-26.99 -218.47,-72.14 -38.05,-40.02 -95.8,-156.86 -56.67,-232.11 14.49,-68.84 70.51,-134.39 134.7,-162.54 42.79,-18.76 97.65,-23.24 143.63,-15.59 96.1,18.52 167.66,79.03 191.4,172.48 16.34,53.58 14.08,142.15 -18.8,182.65zm2037.27 -81.43c-18.96,129.6 -130.06,232.37 -284.34,208.89 -314.18,-47.82 -242.43,-538.76 82.24,-483.79 120.59,20.41 222.97,132.32 202.11,274.9zm-4413.25 -4646.31c93.03,347.29 808.23,225.67 930.18,567.21 36.87,103.23 91.6,240.49 116.68,343.97 259.82,762.25 529.66,1520.56 789.89,2282.63 -93.84,41.83 -86.88,87.89 -129.07,195.52 -30.71,78.36 -197.67,585.7 -229.8,618.4 -0.68,70.79 -38.02,109.1 18.24,178.38 42.78,52.68 82.57,58.64 170.03,58.63l80.24 0.24 -79.19 141.01c-21.58,40.97 -37.08,144.31 -52.54,166.61l12.94 176.83c52.77,116.29 78.07,252.07 261.64,354.53 76.89,42.92 125.3,47.61 148.36,65.45l71.64 5.58c141.3,2.35 167.63,-11.09 286.45,-47.15l28.57 -13.41 128.93 -104.15c1.62,-1.49 3.53,-3.4 5.18,-4.83l11.94 -9.28c1.46,-1.14 4.21,-3.15 6.45,-4.5 5.29,-22.24 -4.96,3.83 6.76,-15.73 1.28,-2.13 9.5,-13.74 10.74,-15.3 7.5,-9.41 16.77,-18.89 23.92,-24.43 11.67,-41.73 27.17,-48.58 43.83,-90.39 13.35,-33.5 21.83,-71.34 34.16,-99.41l4.32 -177.88c-3.17,-64.25 -32.37,-132.41 -56.14,-185.78 -14.54,-22.93 -18.71,-33.9 -33.67,-54.04 -20.38,-27.45 -30.96,-31.9 -37.42,-62.32l182.87 -1.63c333.27,0.06 666.51,0.09 999.78,0.46 -9.14,51.49 -106.29,117.28 -123.41,304.82 -11.4,80.32 -2,112.16 4.91,187.2 25.03,33 18.24,118.15 141.58,249.49 125.41,133.54 204.22,128.26 240.39,150.53 79.55,13.85 111.37,20.31 200.02,17.94 478.37,-52.09 603.88,-583.77 400.83,-845.9 -16.97,-21.91 -30.17,-36.3 -35.89,-62.79 140.08,-7.66 241.53,23.75 298.08,-83.38 40.19,-76.14 12.65,-187.25 -117.26,-216.11 -712.19,-13.71 -1477.5,3.29 -2201.16,-0.48l-682.72 1.62c-59.34,-5.36 -29.11,3.74 -47.54,-20.37 25.43,-68.19 129.47,-458.89 195.85,-448.27l2735.56 2.83c56.42,-6.62 97.08,-35.68 124.17,-67.08 111.8,-129.55 679.52,-2086.54 702.07,-2144.66 20.78,-92.98 103.16,-276.76 99.77,-359.87l-21.02 -76.44c-37.48,-23.15 -24.92,-35.64 -70.09,-60.76 -26.74,-14.87 -171.13,-24.64 -385.82,-30.83l-3.89 -0.11 -123.36 361.28 3.31 0c57.29,0.02 113.38,1.27 165.67,5.24 -0.74,44.08 -108.32,373.6 -127.3,415.28 -59.42,3.75 -121.46,5.61 -184.86,6.34l-2.58 0.02 -119.86 351.02 1.95 0.02c97.91,0.95 163.91,2.34 183.3,4.29 2.97,28.54 -132.83,452.77 -150.44,475.56 -65.87,0.21 -131.76,0.34 -197.67,0.42l-1.14 0 -116.97 342.55 0.53 0.02c88.59,3.66 158.69,11.45 202.69,25.34l-58.23 174.54 -69.88 210.77c-0.81,1.19 -2.66,3.64 -4.24,5.25l-2408.73 4.12c-185.73,-332.71 -910.5,-2625.25 -997.01,-2859.27 -66.6,-180.2 -881.58,-405.36 -988.32,-457.12 -132.34,-4.8 -216.85,61.72 -217.18,191.74z"/>
 </g>
</svg>
