<?xml version="1.0" encoding="UTF-8"?>
<!DOCTYPE svg PUBLIC "-//W3C//DTD SVG 1.1//EN" "http://www.w3.org/Graphics/SVG/1.1/DTD/svg11.dtd">
<!-- Creator: CorelDRAW 2020 (64-Bit Versión de evaluación) -->
<svg xmlns="http://www.w3.org/2000/svg" xml:space="preserve" width="115.165mm" height="108.212mm" version="1.1" style="shape-rendering:geometricPrecision; text-rendering:geometricPrecision; image-rendering:optimizeQuality; fill-rule:evenodd; clip-rule:evenodd"
viewBox="0 0 15625.44 14682.07"
 xmlns:xlink="http://www.w3.org/1999/xlink"
 xmlns:xodm="http://www.corel.com/coreldraw/odm/2003">
 <defs>
  <style type="text/css">
   <![CDATA[
    .fil0 {fill:#B5B0AD}
   ]]>
  </style>
    <mask id="id0">
  <linearGradient id="id1" gradientUnits="userSpaceOnUse" x1="6641.29" y1="7526.45" x2="12800.36" y2="7526.45">
   <stop offset="0" style="stop-opacity:0; stop-color:white"/>
   <stop offset="0.278431" style="stop-opacity:0.501961; stop-color:white"/>
   <stop offset="1" style="stop-opacity:1; stop-color:white"/>
  </linearGradient>
     <rect style="fill:url(#id1)" x="6640.95" y="7008.66" width="6159.74" height="1035.58"/>
    </mask>
    <mask id="id2">
  <linearGradient id="id3" gradientUnits="userSpaceOnUse" x1="6055.65" y1="5217.66" x2="13579.71" y2="5217.66">
   <stop offset="0" style="stop-opacity:0; stop-color:white"/>
   <stop offset="0.278431" style="stop-opacity:0.501961; stop-color:white"/>
   <stop offset="1" style="stop-opacity:1; stop-color:white"/>
  </linearGradient>
     <rect style="fill:url(#id3)" x="6055.31" y="4715.8" width="7524.74" height="1003.74"/>
    </mask>
    <mask id="id4">
  <linearGradient id="id5" gradientUnits="userSpaceOnUse" x1="4954.92" y1="3053.99" x2="14318.61" y2="3053.99">
   <stop offset="0" style="stop-opacity:0; stop-color:white"/>
   <stop offset="0.278431" style="stop-opacity:0.501961; stop-color:white"/>
   <stop offset="1" style="stop-opacity:1; stop-color:white"/>
  </linearGradient>
     <rect style="fill:url(#id5)" x="4954.58" y="2540.43" width="9364.38" height="1027.11"/>
    </mask>
 </defs>
 <g id="Capa_x0020_1">
  <metadata id="CorelCorpID_0Corel-Layer"/>
  <g id="_2457963084416">
   <path class="fil0" style="mask:url(#id0)" d="M12800.36 7012.2c-1912.38,2.14 -3829.47,-13.46 -5739.83,9.59 -180.91,40.91 -268.49,93.22 -349.22,226.81 -81.46,134.78 -92.87,306.72 -28.74,460.81 257.59,618.78 4170.04,176.42 5796.65,243.27l321.14 -940.48z"/>
   <path class="fil0" style="mask:url(#id2)" d="M13579.71 4729.82c-515.58,5.63 -1063.87,-16.06 -1557.08,-13.46l-5194.39 0.37c-548.49,-0.52 -477.74,0.09 -718.47,257.17 -29.44,31.42 -8.05,15.73 -39.96,33.31 6.36,203.25 -61.12,244.44 52.51,441.32 214.66,371.92 678.23,252.61 1330.25,251.86 503.54,-0.58 4373.13,-20.49 5798.06,-6.82l329.07 -963.74z"/>
   <path class="fil0" style="mask:url(#id4)" d="M14318.61 2565.89c-2248.37,-64.03 -7280.89,14.61 -8039.77,14.61 -345.49,0.07 -869.02,-49.02 -1101.19,85.97l-105.07 61.95c-20.99,80.2 -91.34,131.64 -117.48,266.47 -3.95,225.69 58.64,367.19 183.37,465.53 141.36,111.45 300.87,106.93 516.04,105.46l7516.88 1.28c254.21,0.84 536.09,-9.24 808.54,-9.36l338.69 -991.91z"/>
   <path class="fil0" d="M-0 527.1c255.43,953.5 2219.01,619.58 2553.81,1557.29 101.22,283.43 251.48,660.27 320.34,944.38 713.34,2092.77 1454.19,4174.72 2168.66,6267.01 -257.63,114.84 -238.54,241.3 -354.35,536.81 -84.32,215.13 -542.7,1608.05 -630.93,1697.83 -1.86,194.36 -104.38,299.54 50.08,489.73 117.46,144.65 226.69,161.01 466.82,160.97l220.29 0.66 -217.41 387.15c-59.25,112.49 -101.81,396.2 -144.24,457.43l35.53 485.5c144.89,319.28 214.33,692.06 718.32,973.37 211.1,117.84 344,130.71 407.32,179.69l196.68 15.32c387.93,6.46 460.22,-30.45 786.46,-129.45l78.45 -36.82 353.99 -285.96c4.45,-4.08 9.69,-9.33 14.22,-13.27l32.79 -25.48c4.02,-3.13 11.55,-8.64 17.71,-12.36 14.52,-61.07 -13.61,10.53 18.55,-43.19 3.51,-5.85 26.08,-37.72 29.48,-42.01 20.58,-25.85 46.04,-51.86 65.67,-67.08 32.05,-114.58 74.58,-133.39 120.33,-248.17 36.65,-91.96 59.94,-195.87 93.78,-272.94l11.87 -488.36c-8.7,-176.41 -88.87,-363.52 -154.13,-510.06 -39.93,-62.94 -51.38,-93.08 -92.44,-148.38 -55.94,-75.36 -84.99,-87.58 -102.75,-171.1l502.08 -4.48c914.99,0.18 1829.92,0.24 2744.91,1.26 -25.1,141.38 -291.83,322.01 -338.83,836.89 -31.29,220.52 -5.49,307.94 13.47,513.95 68.72,90.59 50.07,324.39 388.71,684.97 344.31,366.63 560.69,352.13 660,413.28 218.4,38.03 305.78,55.75 549.16,49.26 1313.38,-143.02 1657.95,-1602.74 1100.49,-2322.44 -46.59,-60.15 -82.83,-99.66 -98.54,-172.39 384.58,-21.03 663.12,65.19 818.37,-228.93 110.35,-209.04 34.72,-514.09 -321.94,-593.32 -1955.32,-37.64 -4056.51,9.04 -6043.33,-1.32l-1874.41 4.45c-162.92,-14.72 -79.91,10.27 -130.51,-55.91 69.82,-187.22 355.46,-1259.88 537.72,-1230.74l7510.53 7.76c154.9,-18.17 266.53,-97.95 340.92,-184.16 306.95,-355.68 1865.62,-5728.64 1927.55,-5888.21 57.05,-255.28 283.23,-759.84 273.92,-988.04l-57.7 -209.85c-102.9,-63.57 -68.42,-97.85 -192.45,-166.83 -73.4,-40.83 -469.83,-67.65 -1059.27,-84.64l-10.69 -0.3 -338.69 991.91 9.08 0c157.29,0.05 311.29,3.5 454.85,14.4 -2.04,121.01 -297.39,1025.73 -349.51,1140.16 -163.14,10.28 -333.46,15.41 -507.55,17.41l-7.08 0.07 -329.07 963.74 5.36 0.05c268.82,2.61 450.01,6.42 503.25,11.79 8.17,78.35 -364.68,1243.09 -413.05,1305.65 -180.86,0.57 -361.76,0.94 -542.71,1.14l-3.12 0 -321.14 940.48 1.47 0.05c243.22,10.05 435.68,31.42 556.5,69.56l-159.87 479.19 -191.86 578.68c-2.21,3.27 -7.31,9.99 -11.63,14.42l-6613.22 11.3c-509.92,-913.46 -2499.8,-7207.66 -2737.3,-7850.18 -182.84,-494.75 -2420.4,-1112.92 -2713.45,-1255.04 -363.33,-13.19 -595.37,169.45 -596.28,526.42zm6523.29 12980.09c-69.07,173.38 -264.61,305.18 -482.65,349.32 -255.37,42.92 -481.96,-74.11 -599.82,-198.05 -104.47,-109.87 -263.01,-430.67 -155.58,-637.27 39.78,-189.01 193.6,-368.96 369.83,-446.25 117.47,-51.52 268.1,-63.8 394.34,-42.79 263.84,50.85 460.32,216.98 525.5,473.56 44.87,147.12 38.65,390.27 -51.61,501.48zm5593.36 -223.56c-52.05,355.82 -357.08,637.99 -780.67,573.51 -862.59,-131.3 -665.6,-1479.17 225.78,-1328.27 331.08,56.04 612.15,363.28 554.88,754.75z"/>
  </g>
 </g>
</svg>
